<?xml version="1.0" encoding="UTF-8" standalone="no"?>
<svg
   width="32"
   height="32"
   version="1.1"
   id="svg12"
   sodipodi:docname="compass.svg"
   inkscape:version="1.1.2 (0a00cf5339, 2022-02-04)"
   xmlns:inkscape="http://www.inkscape.org/namespaces/inkscape"
   xmlns:sodipodi="http://sodipodi.sourceforge.net/DTD/sodipodi-0.dtd"
   xmlns:xlink="http://www.w3.org/1999/xlink"
   xmlns="http://www.w3.org/2000/svg"
   xmlns:svg="http://www.w3.org/2000/svg"
   xmlns:rdf="http://www.w3.org/1999/02/22-rdf-syntax-ns#"
   xmlns:cc="http://creativecommons.org/ns#"
   xmlns:dc="http://purl.org/dc/elements/1.1/">
  <metadata
     id="metadata18">
    <rdf:RDF>
      <cc:Work
         rdf:about="">
        <dc:format>image/svg+xml</dc:format>
        <dc:type
           rdf:resource="http://purl.org/dc/dcmitype/StillImage" />
      </cc:Work>
    </rdf:RDF>
  </metadata>
  <defs
     id="defs16">
    <linearGradient
       inkscape:collect="always"
       id="linearGradient1335">
      <stop
         style="stop-color:#007fff;stop-opacity:1"
         offset="0"
         id="stop1331" />
      <stop
         style="stop-color:#fac136;stop-opacity:1"
         offset="1"
         id="stop1333" />
    </linearGradient>
    <linearGradient
       inkscape:collect="always"
       xlink:href="#linearGradient1335"
       id="linearGradient1337"
       x1="0"
       y1="-3.0000001e-07"
       x2="32"
       y2="32"
       gradientUnits="userSpaceOnUse"
       gradientTransform="translate(-32,-9.9999997)" />
    <linearGradient
       inkscape:collect="always"
       xlink:href="#linearGradient1335"
       id="linearGradient3679"
       gradientUnits="userSpaceOnUse"
       x1="0"
       y1="-3.0000001e-07"
       x2="32"
       y2="32"
       gradientTransform="matrix(0.71428571,0,0,0.71428571,-0.428572,-0.428571)" />
  </defs>
  <sodipodi:namedview
     pagecolor="#ffffff"
     bordercolor="#000000"
     borderopacity="1"
     objecttolerance="10"
     gridtolerance="10"
     guidetolerance="10"
     inkscape:pageopacity="0"
     inkscape:pageshadow="2"
     inkscape:window-width="1920"
     inkscape:window-height="1009"
     id="namedview14"
     showgrid="false"
     inkscape:zoom="8.0000001"
     inkscape:cx="42.5"
     inkscape:cy="21.1875"
     inkscape:window-x="0"
     inkscape:window-y="0"
     inkscape:window-maximized="1"
     inkscape:current-layer="svg12"
     inkscape:document-rotation="0"
     inkscape:lockguides="true"
     inkscape:showpageshadow="false"
     inkscape:pagecheckerboard="0"
     showguides="false">
    <inkscape:grid
       type="xygrid"
       id="grid880"
       originx="32"
       originy="10" />
  </sodipodi:namedview>
  <g
     id="compass"
     transform="translate(32,9.9999997)">
    <path
       style="clip-rule:evenodd;fill:#ffffc1;fill-opacity:0;fill-rule:evenodd;stroke-width:1.00213;stroke-linejoin:round;stroke-miterlimit:1.41421"
       d="M -32,-9.9999997 V 22 H 0 V -9.9999997 Z"
       id="rect817"
       inkscape:connector-curvature="0" />
    <path
       style="opacity:1;fill:url(#linearGradient1337);fill-opacity:1;stroke-width:1.27274;enable-background:new"
       d="M -15.999999,-7.9999994 C -23.724718,-7.9999994 -30,-1.724715 -30,5.9999993 -30,13.724721 -23.724718,20.000001 -15.999999,20 -8.275279,20 -1.999998,13.724721 -2,5.9999993 -2,-1.724715 -8.275279,-7.9999994 -15.999999,-7.9999994 Z"
       id="path24-5"
       inkscape:connector-curvature="0" />
    <path
       d="M -5.733333,6.0000003 -12.577772,2.5777773 -16,-4.2666661 l -3.422223,6.8444434 -6.844444,3.422223 6.844444,3.422228 L -16,16.266667 -12.577772,9.4222283 Z m -6.709615,-2.589253 5.179203,2.589253 h -7.768456 z M -16,-2.7362493 v 7.7684506 l -2.589253,-2.589258 z m -3.557057,11.3255026 -5.179192,-2.589253 h 7.76845 z M -16,14.736255 V 6.9677993 l 2.589253,2.589253 z"
       id="path10-5-7"
       style="fill:#1e2129;fill-opacity:1;stroke-width:0.684439" />
  </g>
  <g
     id="22-22-compass"
     transform="translate(32,9.9999997)">
    <path
       style="clip-rule:evenodd;fill:#ffffc1;fill-opacity:0;fill-rule:evenodd;stroke-width:0.688964;stroke-linejoin:round;stroke-miterlimit:1.41421"
       d="M 0,0 V 22 H 22 V 0 Z"
       id="rect817-5-1"
       inkscape:connector-curvature="0" />
    <path
       style="fill:url(#linearGradient3679);fill-opacity:1;stroke-width:0.9091;enable-background:new"
       d="M 11.000001,1 C 5.482344,1 1,5.482346 1,11 1,16.517658 5.482344,21.000001 11.000001,21.000001 16.517658,21.000001 21.000001,16.517658 21,11 21,5.482346 16.517658,1 11.000001,1 Z"
       id="path24-5-7"
       inkscape:connector-curvature="0" />
    <path
       d="M 18.333334,11 13.444449,8.555555 11,3.666667 8.555555,8.555555 3.666666,11 8.555555,13.444449 11,18.333334 13.444449,13.444449 Z M 13.540751,9.150534 17.240182,11 H 11.691285 Z M 11,4.759821 v 5.548894 L 9.150534,8.459245 Z M 8.459245,12.849467 4.759822,11 h 5.548893 z M 11,17.240182 v -5.548897 l 1.849466,1.849467 z"
       id="path10-5-7-2"
       style="fill:#1e2129;fill-opacity:1;stroke-width:0.488885" />
  </g>
</svg>
