<?xml version="1.0" encoding="UTF-8" standalone="no"?>
<svg
   xmlns:dc="http://purl.org/dc/elements/1.1/"
   xmlns:cc="http://creativecommons.org/ns#"
   xmlns:rdf="http://www.w3.org/1999/02/22-rdf-syntax-ns#"
   xmlns:svg="http://www.w3.org/2000/svg"
   xmlns="http://www.w3.org/2000/svg"
   xmlns:xlink="http://www.w3.org/1999/xlink"
   xmlns:sodipodi="http://sodipodi.sourceforge.net/DTD/sodipodi-0.dtd"
   xmlns:inkscape="http://www.inkscape.org/namespaces/inkscape"
   width="32"
   height="32"
   version="1.1"
   id="svg12"
   sodipodi:docname="bookmarks.svg"
   inkscape:version="1.0.2 (e86c870879, 2021-01-15)">
  <g
     id="bookmarks">
    <rect
       y="0"
       x="0"
       height="32"
       width="32"
       id="rect820"
       style="clip-rule:evenodd;fill:#2020ff;fill-opacity:0;fill-rule:evenodd;stroke-linejoin:round;stroke-miterlimit:1.41421" />
    <path
       d="M 16,2 C 8.262215,2 2,8.2615385 2,16 2,23.737785 8.261539,30 16,30 23.737846,30 30,23.738462 30,16 30,8.2622154 23.738462,2 16,2 Z m 7.249969,12.528185 -3.035015,2.958461 0.716492,4.177354 c 0.05237,0.305108 -0.07311,0.613415 -0.323508,0.795323 -0.250338,0.181908 -0.5824,0.205908 -0.856307,0.06191 L 16,20.548923 12.248431,22.521231 c -0.273846,0.144 -0.605969,0.12 -0.856308,-0.06191 -0.2504,-0.181967 -0.375815,-0.490275 -0.323508,-0.795321 l 0.716493,-4.177354 -3.035016,-2.958461 c -0.221661,-0.216062 -0.301353,-0.5392 -0.205784,-0.8336 0.09569,-0.2944 0.350092,-0.508923 0.656431,-0.553416 l 4.194276,-0.609477 1.875754,-3.8007382 C 15.407815,8.4534154 15.6904,8.2776615 16,8.2776615 c 0.3096,0 0.592185,0.1756923 0.729231,0.4532923 l 1.875754,3.8007382 4.194277,0.609477 c 0.306338,0.04449 0.560738,0.259016 0.65643,0.553416 0.09563,0.2944 0.01588,0.617538 -0.205723,0.8336 z"
       id="path2"
       style="clip-rule:evenodd;fill:url(#linearGradient844);fill-opacity:1;fill-rule:evenodd;stroke-width:0.0615385;stroke-linejoin:round;stroke-miterlimit:1.41421" />
  </g>
  <metadata
     id="metadata18">
    <rdf:RDF>
      <cc:Work
         rdf:about="">
        <dc:format>image/svg+xml</dc:format>
        <dc:type
           rdf:resource="http://purl.org/dc/dcmitype/StillImage" />
      </cc:Work>
    </rdf:RDF>
  </metadata>
  <defs
     id="defs16">
    <linearGradient
       inkscape:collect="always"
       id="linearGradient842">
      <stop
         style="stop-color:#007fff;stop-opacity:1"
         offset="0"
         id="stop838" />
      <stop
         style="stop-color:#fac136;stop-opacity:1"
         offset="1"
         id="stop840" />
    </linearGradient>
    <linearGradient
       inkscape:collect="always"
       xlink:href="#linearGradient842"
       id="linearGradient844"
       x1="2.125989"
       y1="2.4227669"
       x2="26.282076"
       y2="25.377161"
       gradientUnits="userSpaceOnUse" />
    <linearGradient
       inkscape:collect="always"
       xlink:href="#linearGradient842"
       id="linearGradient852"
       x1="33.535492"
       y1="11.494738"
       x2="50.266396"
       y2="27.995714"
       gradientUnits="userSpaceOnUse" />
  </defs>
  <sodipodi:namedview
     pagecolor="#ffffff"
     bordercolor="#666666"
     borderopacity="1"
     objecttolerance="10"
     gridtolerance="10"
     guidetolerance="10"
     inkscape:pageopacity="0"
     inkscape:pageshadow="2"
     inkscape:window-width="1920"
     inkscape:window-height="1007"
     id="namedview14"
     showgrid="false"
     inkscape:zoom="9.8125"
     inkscape:cx="27.68348"
     inkscape:cy="20.302447"
     inkscape:window-x="0"
     inkscape:window-y="0"
     inkscape:window-maximized="1"
     inkscape:current-layer="svg12"
     inkscape:document-rotation="0">
    <inkscape:grid
       type="xygrid"
       id="grid857"
       originx="0"
       originy="0" />
  </sodipodi:namedview>
  <g
     id="g997" />
  <g
     id="22-22-bookmarks"
     transform="translate(32,10)" />
  <g
     id="g943">
    <rect
       y="10"
       x="32"
       height="22"
       width="22"
       id="rect820-6"
       style="clip-rule:evenodd;fill:#2020ff;fill-opacity:0;fill-rule:evenodd;stroke-width:0.6875;stroke-linejoin:round;stroke-miterlimit:1.41421" />
    <path
       d="m 43,11 c -5.526985,0 -10,4.472529 -10,10 0,5.52699 4.472528,10 10,10 5.527029,0 10,-4.472527 10,-10 0,-5.526986 -4.472528,-10 -10,-10 z m 5.178552,8.948703 -2.167872,2.113187 0.511778,2.983824 c 0.03742,0.217935 -0.05223,0.438154 -0.231077,0.568088 -0.17881,0.129935 -0.416,0.147077 -0.611642,0.04422 L 43,24.249231 40.320305,25.658022 c -0.195609,0.102857 -0.432833,0.08572 -0.611647,-0.04422 -0.178855,-0.129976 -0.268436,-0.350196 -0.231078,-0.568086 l 0.511785,-2.983824 -2.167861,-2.113187 c -0.158336,-0.15433 -0.215262,-0.385142 -0.147008,-0.595428 0.06834,-0.210285 0.250075,-0.363518 0.468885,-0.395298 l 2.995915,-0.43534 1.339827,-2.714817 c 0.09789,-0.198241 0.299734,-0.32378 0.520877,-0.32378 0.221143,0 0.422985,0.1255 0.520877,0.32378 l 1.339819,2.714817 2.995923,0.43534 c 0.21881,0.03178 0.400524,0.185013 0.468877,0.395298 0.06827,0.210285 0.01136,0.441098 -0.146944,0.595426 z"
       id="path2-7"
       style="clip-rule:evenodd;fill:url(#linearGradient852);fill-opacity:1;fill-rule:evenodd;stroke-width:0.0439562;stroke-linejoin:round;stroke-miterlimit:1.41421" />
  </g>
</svg>
