<?xml version="1.0" encoding="UTF-8" standalone="no"?>
<svg
   xmlns:dc="http://purl.org/dc/elements/1.1/"
   xmlns:cc="http://creativecommons.org/ns#"
   xmlns:rdf="http://www.w3.org/1999/02/22-rdf-syntax-ns#"
   xmlns:svg="http://www.w3.org/2000/svg"
   xmlns="http://www.w3.org/2000/svg"
   xmlns:sodipodi="http://sodipodi.sourceforge.net/DTD/sodipodi-0.dtd"
   xmlns:inkscape="http://www.inkscape.org/namespaces/inkscape"
   sodipodi:docname="kdeconnect.svg"
   height="100%"
   width="100%"
   inkscape:version="1.0 (4035a4fb49, 2020-05-01)"
   version="1.1"
   id="svg"
   viewBox="0 0 32.000014 31.999972">
  <defs
     id="defs81">
    <style
       type="text/css"
       id="current-color-scheme">
</style>
    <style
       id="current-color-scheme-9"
       type="text/css">
    </style>
  </defs>
  <metadata
     id="metadata34">
    <rdf:RDF>
      <cc:Work
         rdf:about="">
        <dc:format>image/svg+xml</dc:format>
        <dc:type
           rdf:resource="http://purl.org/dc/dcmitype/StillImage" />
        <dc:title />
      </cc:Work>
    </rdf:RDF>
  </metadata>
  <sodipodi:namedview
     inkscape:document-rotation="0"
     fit-margin-bottom="0"
     fit-margin-right="0"
     fit-margin-left="0"
     fit-margin-top="0"
     inkscape:snap-bbox-midpoints="true"
     inkscape:snap-bbox="true"
     inkscape:guide-bbox="true"
     showguides="true"
     borderlayer="true"
     inkscape:current-layer="svg"
     inkscape:window-maximized="1"
     inkscape:window-y="0"
     inkscape:window-x="0"
     inkscape:cy="40.627414"
     inkscape:cx="28.678737"
     inkscape:zoom="5.6568543"
     showgrid="false"
     id="namedview32"
     inkscape:window-height="1013"
     inkscape:window-width="1920"
     inkscape:pageshadow="2"
     inkscape:pageopacity="0.11372549"
     guidetolerance="10"
     gridtolerance="10"
     objecttolerance="10"
     borderopacity="1"
     bordercolor="#000000"
     pagecolor="#ffffff"
     inkscape:lockguides="false">
    <inkscape:grid
       spacingy="1.0666667"
       spacingx="1.0666666"
       originy="-31.76665"
       originx="-51.666691"
       snapvisiblegridlinesonly="true"
       enabled="true"
       visible="true"
       empspacing="5"
       id="grid3046"
       type="xygrid" />
  </sodipodi:namedview>
  <g
     transform="translate(-48.437527,39.781208)"
     id="kdeconnect">
    <g
       id="g3854">
      <rect
         width="32.000015"
         height="31.999973"
         rx="0"
         ry="0"
         x="48.437527"
         y="-39.781208"
         id="rect3860"
         style="opacity:0.01;fill:#eff0f1;fill-opacity:0;stroke:none" />
    </g>
    <path
       inkscape:connector-curvature="0"
       style="fill:#eff0f1;fill-opacity:1;stroke-width:1.0833"
       d="m 58.704527,-36.46452 c -1.20034,0 -2.16667,0.96633 -2.16667,2.16667 v 3.25 h -0.40625 c -0.376378,0 -0.67708,0.300702 -0.67708,0.67708 v 0.8125 c 0,0.376378 0.300702,0.67708 0.67708,0.67708 h 0.40625 v 1.08334 c -0.60016,0 -1.08333,0.48316 -1.08333,1.08333 v 2.16667 c 0,0.60016 0.48317,1.08333 1.08333,1.08333 v 10.83333 c 0,1.200338 0.96633,2.16667 2.16667,2.16667 h 10.83333 c 1.20035,0 2.16667,-0.966332 2.16667,-2.16667 v -21.66666 c 0,-1.20034 -0.96632,-2.16667 -2.16667,-2.16667 z m 10.29167,1.08333 c 0.299152,0 0.54166,0.242518 0.54166,0.54167 0,0.299152 -0.242508,0.54167 -0.54166,0.54167 -0.299162,0 -0.54167,-0.242518 -0.54167,-0.54167 0,-0.299152 0.242508,-0.54167 0.54167,-0.54167 z m -10.29167,2.16667 h 10.83333 c 0.60017,0 1.08334,0.48317 1.08334,1.08333 v 16.25 c 0,0.60017 -0.48317,1.08334 -1.08334,1.08334 h -10.83333 c -0.60017,0 -1.08333,-0.48317 -1.08333,-1.08334 v -8.66666 -2.16667 -2.84375 -0.8125 -1.76042 c 0,-0.60016 0.48316,-1.08333 1.08333,-1.08333 z m 3.79167,19.5 h 3.25 c 0.60016,0 1.08333,0.48317 1.08333,1.08333 0,0.60017 -0.48317,1.083339 -1.08333,1.083339 h -3.25 c -0.60017,0 -1.08334,-0.483169 -1.08334,-1.083339 0,-0.60016 0.48317,-1.08333 1.08334,-1.08333 z"
       id="path2990-1" />
    <path
       sodipodi:nodetypes="ccccccccccccsccccsscccccccccccssccccscccccssccccccs"
       style="color:#31363b;fill:#fac136;fill-opacity:1;stroke:none"
       d="m 64.981277,-29.562471 -0.03125,3.1875 2.3125,-3.125 1.875,0.4375 -2.40625,3.09375 2.375,3.28125 -1.8125,0.59375 -2.34375,-3.40625 v 3.0625 l -1.75,0.28125 v -7.25 z m -4,1.75 c 0.01993,0 0.04476,0.01525 0.0625,0.03125 l 1.3125,0.84375 c 0.162531,-0.08815 0.323025,-0.156205 0.5,-0.21875 v 0.71875 c -0.972495,0.437237 -1.625,1.428536 -1.625,2.5625 0,1.541819 1.237307,2.78125 2.78125,2.78125 1.086531,0 2.037425,-0.627395 2.5,-1.53125 0.386778,0.565528 0.6875,1 0.6875,1 0.01309,0.02182 0.04039,0.04725 0.0625,0.03125 l 0.125,-0.03125 0.46875,0.75 c 0.02182,0.03346 0.02924,0.09591 0,0.125 l -0.6875,0.6875 c -0.02996,0.03491 -0.08966,0.02473 -0.125,0 l -1.28125,-0.84375 c -0.262822,0.154473 -0.542383,0.293545 -0.84375,0.375 l -0.34375,1.46875 c -0.0096,0.04073 -0.05273,0.0625 -0.09375,0.0625 h -0.96875 c -0.04233,0 -0.08502,-0.02177 -0.09375,-0.0625 l -0.3125,-1.46875 c -0.292233,-0.07869 -0.556282,-0.196695 -0.8125,-0.34375 l -1.3125,0.78125 c -0.03505,0.01745 -0.09591,0.02909 -0.125,0 l -0.6875,-0.6875 c -0.03025,-0.02909 -0.02327,-0.09009 0,-0.125 l 0.84375,-1.28125 c -0.157222,-0.275927 -0.2982,-0.558345 -0.375,-0.875 l -1.4375,-0.34375 c -0.03986,-0.01018 -0.0625,-0.05302 -0.0625,-0.09375 v -0.96875 c 0,-0.04364 0.02134,-0.07775 0.0625,-0.09375 l 1.5,-0.3125 c 0.08192,-0.2736 0.200332,-0.540523 0.34375,-0.78125 l -0.8125,-1.3125 c -0.0208,-0.03346 -0.02895,-0.09591 0,-0.125 l 0.6875,-0.6875 c 0.01498,-0.0058 0.04257,-0.03125 0.0625,-0.03125 z"
       id="path3862"
       class="ColorScheme-Text"
       inkscape:connector-curvature="0" />
  </g>
  <g
     transform="translate(4.5624737,38.781208)"
     id="22-22-kdeconnect">
    <path
       sodipodi:nodetypes="ccccccccccccsccccsscccccccccccssccccscccccssccccccs"
       style="color:#31363b;fill:#fac136;fill-opacity:1;stroke:none"
       d="m 11.639053,5.988163 -0.02367,2.4142006 1.75148,-2.3668635 1.420119,0.3313615 -1.822486,2.343195 1.798817,2.4852074 -1.372781,0.449704 -1.775149,-2.5798814 V 11.384613 L 10.28994,11.597631 V 6.1065059 Z M 8.609467,7.3136066 c 0.0151,0 0.0339,0.01155 0.04734,0.02367 l 0.994083,0.639054 c 0.123101,-0.06677 0.244658,-0.11831 0.378698,-0.165681 v 0.544379 c -0.736564,0.331162 -1.230769,1.081968 -1.230769,1.9408294 0,1.167768 0.937132,2.106509 2.106509,2.106509 0.822935,0 1.54314,-0.475186 1.893492,-1.159764 C 13.091764,11.670933 13.31953,12 13.31953,12 c 0.0099,0.01653 0.03059,0.03578 0.04734,0.02367 L 13.461541,12 l 0.35503,0.568047 c 0.01653,0.02535 0.02215,0.07264 0,0.09467 l -0.52071,0.52071 c -0.02269,0.02645 -0.06791,0.01873 -0.09467,0 l -0.970414,-0.639054 c -0.199061,0.116998 -0.410799,0.222331 -0.639054,0.284024 l -0.260355,1.112427 c -0.0073,0.03085 -0.03994,0.04734 -0.07101,0.04734 h -0.733729 c -0.03206,0 -0.06439,-0.01649 -0.07101,-0.04734 L 10.218933,12.828397 C 9.997596,12.768797 9.797606,12.679421 9.603548,12.568042 l -0.994083,0.591717 c -0.02655,0.01321 -0.07264,0.02203 -0.09467,0 l -0.52071,-0.52071 c -0.02291,-0.02203 -0.01762,-0.06824 0,-0.09467 L 8.633139,11.573965 C 8.514059,11.364978 8.407283,11.151075 8.349115,10.911242 L 7.260357,10.650888 c -0.03019,-0.0077 -0.04734,-0.04016 -0.04734,-0.07101 V 9.8461506 c 0,-0.03305 0.01616,-0.05889 0.04734,-0.071 l 1.136095,-0.236686 c 0.06205,-0.207224 0.15173,-0.409391 0.260356,-0.591717 L 8.041422,7.9526656 c -0.01576,-0.02535 -0.02193,-0.07264 0,-0.09468 l 0.52071,-0.520709 c 0.01131,-0.0043 0.03224,-0.02367 0.04734,-0.02367 z"
       id="path3862-4"
       class="ColorScheme-Text"
       inkscape:connector-curvature="0" />
    <g
       id="g3857">
      <g
         id="g3845">
        <path
           inkscape:connector-curvature="0"
           style="fill:#eff0f1;fill-opacity:1;stroke:none"
           d="M 6,3 C 5.446,3 5,3.446 5,4 v 14 c 0,0.554 0.446,1 1,1 h 10 c 0.554,0 1,-0.446 1,-1 V 4 C 17,3.446 16.554,3 16,3 Z M 6,4 H 16 V 16 H 6 Z m 3.5,13 h 3 c 0.277,0 0.5,0.223 0.5,0.5 0,0.277 -0.223,0.5 -0.5,0.5 h -3 C 9.223,18 9,17.777 9,17.5 9,17.223 9.223,17 9.5,17 Z"
           id="rect3881" />
        <rect
           style="fill:#000000;fill-opacity:0;stroke:none"
           id="rect3841"
           width="22"
           height="22"
           x="0"
           y="0" />
      </g>
    </g>
  </g>
  <g
     transform="translate(7.5625007,73.281246)"
     id="16-16-kdeconnect">
    <path
       style="fill:#eff0f1;fill-opacity:1;stroke:none"
       d="M 2.9999743,1.4999625 V 14.499963 h 2 1 4 0.9999997 2 V 1.4999625 Z m 1,1 H 11.999974 V 11.499963 H 3.9999743 Z m 2,10.0000005 h 4 v 1 h -4 z"
       id="rect3878"
       inkscape:connector-curvature="0" />
    <rect
       style="fill:#566060;fill-opacity:0;stroke:none"
       id="rect3889"
       width="16"
       height="16"
       x="-2.6000002e-05"
       y="-3.7329864e-05"
       ry="2.9278411e-07" />
  </g>
</svg>
