<?xml version="1.0" encoding="UTF-8" standalone="no"?>
<svg
   xmlns:dc="http://purl.org/dc/elements/1.1/"
   xmlns:cc="http://creativecommons.org/ns#"
   xmlns:rdf="http://www.w3.org/1999/02/22-rdf-syntax-ns#"
   xmlns:svg="http://www.w3.org/2000/svg"
   xmlns="http://www.w3.org/2000/svg"
   xmlns:xlink="http://www.w3.org/1999/xlink"
   xmlns:sodipodi="http://sodipodi.sourceforge.net/DTD/sodipodi-0.dtd"
   xmlns:inkscape="http://www.inkscape.org/namespaces/inkscape"
   inkscape:version="1.0 (4035a4fb49, 2020-05-01)"
   sodipodi:docname="folder-activities.svg"
   id="svg14"
   version="1.1"
   viewBox="0 0 64 64">
  <metadata
     id="metadata18">
    <rdf:RDF>
      <cc:Work
         rdf:about="">
        <dc:format>image/svg+xml</dc:format>
        <dc:type
           rdf:resource="http://purl.org/dc/dcmitype/StillImage" />
      </cc:Work>
    </rdf:RDF>
  </metadata>
  <sodipodi:namedview
     inkscape:document-rotation="0"
     inkscape:current-layer="svg14"
     inkscape:window-maximized="1"
     inkscape:window-y="0"
     inkscape:window-x="0"
     inkscape:cy="34.002794"
     inkscape:cx="-0.38250638"
     inkscape:zoom="6.2289233"
     showgrid="false"
     id="namedview16"
     inkscape:window-height="1011"
     inkscape:window-width="1920"
     inkscape:pageshadow="2"
     inkscape:pageopacity="0"
     guidetolerance="10"
     gridtolerance="10"
     objecttolerance="10"
     borderopacity="1"
     bordercolor="#666666"
     pagecolor="#ffffff" />
  <defs
     id="defs3051">
    <linearGradient
       id="linearGradient843"
       inkscape:collect="always">
      <stop
         id="stop839"
         offset="0"
         style="stop-color:#fac136;stop-opacity:1" />
      <stop
         style="stop-color:#3385ff;stop-opacity:1"
         offset="0.62625861"
         id="stop845" />
      <stop
         id="stop841"
         offset="1"
         style="stop-color:#66a3ff;stop-opacity:1" />
    </linearGradient>
    <linearGradient
       id="linearGradient821"
       inkscape:collect="always">
      <stop
         id="stop817"
         offset="0"
         style="stop-color:#00bcd4;stop-opacity:1" />
      <stop
         id="stop819"
         offset="1"
         style="stop-color:#fac136;stop-opacity:1" />
    </linearGradient>
    <style
       id="current-color-scheme"
       type="text/css">
      .ColorScheme-Text {
        color:#31363b;
      }
      .ColorScheme-Background {
        color:#eff0f1;
      }
      .ColorScheme-Highlight {
        color:#3daee9;
      }
      .ColorScheme-ViewText {
        color:#31363b;
      }
      .ColorScheme-ViewBackground {
        color:#fcfcfc;
      }
      .ColorScheme-ViewHover {
        color:#93cee9;
      }
      .ColorScheme-ViewFocus{
        color:#3daee9;
      }
      .ColorScheme-ButtonText {
        color:#31363b;
      }
      .ColorScheme-ButtonBackground {
        color:#eff0f1;
      }
      .ColorScheme-ButtonHover {
        color:#93cee9;
      }
      .ColorScheme-ButtonFocus{
        color:#3daee9;
      }
      </style>
    <linearGradient
       gradientUnits="userSpaceOnUse"
       y2="70.094482"
       x2="-4.9057279"
       y1="16"
       x1="60"
       id="linearGradient845"
       xlink:href="#linearGradient843"
       inkscape:collect="always" />
    <linearGradient
       y2="0.30635375"
       x2="0.74604964"
       y1="16"
       x1="60"
       gradientUnits="userSpaceOnUse"
       id="linearGradient844"
       xlink:href="#linearGradient821"
       inkscape:collect="always" />
  </defs>
  <path
     sodipodi:nodetypes="ccccccscccccccccccscccccc"
     id="path4"
     class="ColorScheme-Highlight"
     d="m 4,6 v 5 9 H 3 v 1 h 0.00195 C 3.0019031,21.004 3,21.008019 3,21.011719 V 57 58 h 1 56 1 V 57 30.458868 21.011719 21 16 h -1 v -4.990234 c 0,-0.003 -0.002,-0.0058 -0.002,-0.0098 H 60 V 10 H 32 L 28,6 Z"
     style="fill:url(#linearGradient845);fill-opacity:1;stroke:none" />
  <path
     id="path6"
     d="M 4 6 L 4 11 L 4 20 L 22 20 L 26 16 L 60 16 L 60 11.009766 C 60 11.006766 59.998047 11.004 59.998047 11 L 60 11 L 60 10 L 32 10 L 28 6 L 4 6 z "
     style="fill-opacity:1;fill-rule:evenodd;fill:url(#linearGradient844)" />
  <path
     id="path8"
     d="M 28 6 L 31 11 L 33 11 L 60 11 L 60 10 L 33 10 L 32 10 L 28 6 z M 26 16 L 22 20 L 3 20 L 3 21 L 23 21 L 26 16 z "
     style="fill:#ffffff;fill-opacity:0.2;fill-rule:evenodd" />
  <path
     id="path10"
     class="ColorScheme-Text"
     d="M 26 16 L 20 19 L 4 19 L 4 20 L 22 20 L 26 16 z M 3 57 L 3 58 L 4 58 L 60 58 L 61 58 L 61 57 L 60 57 L 4 57 L 3 57 z "
     style="fill-opacity:0.2;fill-rule:evenodd" />
  <path
     id="path12"
     class="ColorScheme-Background"
     d="M 26.5 27 A 1.5000025 1.499995 0 0 0 25 28.5 A 1.5000025 1.499995 0 0 0 26.5 30 A 1.5000025 1.499995 0 0 0 28 28.5 A 1.5000025 1.499995 0 0 0 26.5 27 z M 35 27 L 32.15625 29.84375 L 36.53125 34.21875 L 32 39.375 L 35 42 L 42 34 L 35 27 z M 24.5 34 A 2.4999926 2.5 0 0 0 22 36.5 A 2.4999926 2.5 0 0 0 24.5 39 A 2.4999926 2.5 0 0 0 27 36.5 A 2.4999926 2.5 0 0 0 24.5 34 z M 29 41 A 2.9999924 3 0 0 0 26 44 A 2.9999924 3 0 0 0 29 47 A 2.9999924 3 0 0 0 32 44 A 2.9999924 3 0 0 0 29 41 z "
     style="fill:#002d3c;fill-opacity:1;stroke:none" />
</svg>
