<?xml version="1.0" encoding="UTF-8" standalone="no"?>
<svg
   xmlns:dc="http://purl.org/dc/elements/1.1/"
   xmlns:cc="http://creativecommons.org/ns#"
   xmlns:rdf="http://www.w3.org/1999/02/22-rdf-syntax-ns#"
   xmlns:svg="http://www.w3.org/2000/svg"
   xmlns="http://www.w3.org/2000/svg"
   xmlns:xlink="http://www.w3.org/1999/xlink"
   xmlns:sodipodi="http://sodipodi.sourceforge.net/DTD/sodipodi-0.dtd"
   xmlns:inkscape="http://www.inkscape.org/namespaces/inkscape"
   width="32"
   height="32"
   version="1.1"
   id="svg17"
   sodipodi:docname="applications.svg"
   inkscape:version="1.0.1 (3bc2e813f5, 2020-09-07)">
  <metadata
     id="metadata23">
    <rdf:RDF>
      <cc:Work
         rdf:about="">
        <dc:format>image/svg+xml</dc:format>
        <dc:type
           rdf:resource="http://purl.org/dc/dcmitype/StillImage" />
      </cc:Work>
    </rdf:RDF>
  </metadata>
  <defs
     id="defs21">
    <linearGradient
       inkscape:collect="always"
       id="linearGradient869">
      <stop
         style="stop-color:#007fff;stop-opacity:1"
         offset="0"
         id="stop865" />
      <stop
         style="stop-color:#fac136;stop-opacity:1"
         offset="1"
         id="stop867" />
    </linearGradient>
    <linearGradient
       y2="15.999999"
       x2="51.5"
       y1="15.999999"
       x1="26.5"
       id="_lgradient_4"
       gradientUnits="userSpaceOnUse"
       gradientTransform="matrix(1.1199999,0,0,1.1199999,-27.239997,-1.9800147)">
      <stop
         id="stop15-3"
         style="stop-color:rgb(255,143,195)"
         stop-opacity="1"
         offset="0%" />
      <stop
         id="stop17-6"
         style="stop-color:rgb(161,161,255)"
         stop-opacity="1"
         offset="100%" />
    </linearGradient>
    <linearGradient
       inkscape:collect="always"
       xlink:href="#linearGradient869"
       id="linearGradient871"
       x1="54.595345"
       y1="14.865248"
       x2="69.598175"
       y2="30.219477"
       gradientUnits="userSpaceOnUse" />
  </defs>
  <sodipodi:namedview
     pagecolor="#ffffff"
     bordercolor="#666666"
     inkscape:document-rotation="0"
     borderopacity="1"
     objecttolerance="10"
     gridtolerance="10"
     guidetolerance="10"
     inkscape:pageopacity="0"
     inkscape:pageshadow="2"
     inkscape:window-width="1920"
     inkscape:window-height="1017"
     id="namedview19"
     showgrid="false"
     inkscape:zoom="10.636102"
     inkscape:cx="16"
     inkscape:cy="16"
     inkscape:window-x="0"
     inkscape:window-y="0"
     inkscape:window-maximized="1"
     inkscape:current-layer="applications-other-3" />
  <g
     id="applications-other">
    <g
       transform="translate(0.27357099,0.15566293)"
       id="applications-other-3"
       style="clip-rule:evenodd;fill-rule:evenodd;stroke-linejoin:round;stroke-miterlimit:1.41421">
      <path
         inkscape:connector-curvature="0"
         id="rect817"
         transform="translate(-21.999998,-1.5e-5)"
         d="M 22,0 V 32 H 54 V 0 Z"
         style="fill:#ffffc1;fill-opacity:0;stroke-width:1.00213" />
      <g
         id="g6"
         transform="translate(-46.428208,-6.4460716)">
        <g
           id="g4">
          <path
             style="opacity:1;fill:url(#linearGradient871);fill-opacity:1;stroke-width:0.0546875"
             id="path2"
             d="m 62.236925,8.349958 c -7.72007,0 -14,6.280531 -14,14 0,7.719469 6.27993,14 14,14 7.72007,0 14,-6.280531 14,-14 0,-7.719469 -6.27993,-14 -14,-14 z m -1.166648,20.416648 c 0,0.965016 -0.784985,1.75 -1.75,1.75 h -3.5 c -0.965016,0 -1.75,-0.784984 -1.75,-1.75 v -3.5 c 0,-0.965015 0.784984,-1.75 1.75,-1.75 h 3.5 c 0.965015,0 1.75,0.784985 1.75,1.75 z m 0,-9.333296 c 0,0.965015 -0.784985,1.75 -1.75,1.75 h -3.5 c -0.965016,0 -1.75,-0.784985 -1.75,-1.75 v -3.5 c 0,-0.965016 0.784984,-1.75 1.75,-1.75 h 3.5 c 0.965015,0 1.75,0.784984 1.75,1.75 z m 9.333296,9.333296 c 0,0.965016 -0.784984,1.75 -1.75,1.75 h -3.5 c -0.965015,0 -1.75,-0.784984 -1.75,-1.75 v -3.5 c 0,-0.965015 0.784985,-1.75 1.75,-1.75 h 3.5 c 0.965016,0 1.75,0.784985 1.75,1.75 z m 0,-9.333296 c 0,0.965015 -0.784984,1.75 -1.75,1.75 h -3.5 c -0.965015,0 -1.75,-0.784985 -1.75,-1.75 v -3.5 c 0,-0.965016 0.784985,-1.75 1.75,-1.75 h 3.5 c 0.965016,0 1.75,0.784984 1.75,1.75 z" />
        </g>
      </g>
    </g>
  </g>
</svg>
