<?xml version="1.0" encoding="UTF-8" standalone="no"?>
<svg
   xmlns:dc="http://purl.org/dc/elements/1.1/"
   xmlns:cc="http://creativecommons.org/ns#"
   xmlns:rdf="http://www.w3.org/1999/02/22-rdf-syntax-ns#"
   xmlns:svg="http://www.w3.org/2000/svg"
   xmlns="http://www.w3.org/2000/svg"
   xmlns:sodipodi="http://sodipodi.sourceforge.net/DTD/sodipodi-0.dtd"
   xmlns:inkscape="http://www.inkscape.org/namespaces/inkscape"
   inkscape:version="1.0.1 (3bc2e813f5, 2020-09-07)"
   sodipodi:docname="nepomuk.svg"
   height="100%"
   width="100%"
   version="1.1"
   id="svg"
   viewBox="0 0 22 22">
  <sodipodi:namedview
     inkscape:document-rotation="0"
     inkscape:current-layer="svg"
     inkscape:window-maximized="1"
     inkscape:window-y="0"
     inkscape:window-x="0"
     inkscape:cy="11"
     inkscape:cx="-22.466102"
     inkscape:zoom="10.727273"
     showgrid="false"
     id="namedview9"
     inkscape:window-height="1019"
     inkscape:window-width="1920"
     inkscape:pageshadow="2"
     inkscape:pageopacity="0"
     guidetolerance="10"
     gridtolerance="10"
     objecttolerance="10"
     borderopacity="1"
     bordercolor="#666666"
     pagecolor="#ffffff" />
  <defs
     id="defs81">
    <style
       type="text/css"
       id="current-color-scheme" />
  </defs>
  <metadata
     id="metadata34">
    <rdf:RDF>
      <cc:Work
         rdf:about="">
        <dc:format>image/svg+xml</dc:format>
        <dc:type
           rdf:resource="http://purl.org/dc/dcmitype/StillImage" />
        <dc:title />
      </cc:Work>
    </rdf:RDF>
  </metadata>
  <g
     transform="translate(-1,-1)"
     id="nepomuk">
    <rect
       y="1"
       x="1"
       height="22"
       width="22"
       id="rect3009"
       style="fill:#ffffff;fill-opacity:0;stroke:none" />
    <path
       class="ColorScheme-Text"
       id="path4146-5"
       d="m 10,4 c -3.324005,0 -6,2.675995 -6,6 0,3.324005 2.675995,6 6,6 1.481138,0 2.830604,-0.533453 3.875,-1.416667 L 19.291666,20 20,19.291666 14.583333,13.875 C 15.466547,12.830604 16,11.481138 16,10 16,6.675995 13.324005,4 10,4 Z m 0,1 c 2.770005,0 4.999999,2.229995 4.999999,5 0,2.770005 -2.229994,4.999999 -4.999999,4.999999 C 7.229995,14.999999 5,12.770005 5,10 5,7.229995 7.229995,5 10,5 Z"
       style="fill:#232627;fill-opacity:1;stroke:none" />
  </g>
</svg>
