<?xml version="1.0" encoding="UTF-8" standalone="no"?>
<svg
   xmlns:dc="http://purl.org/dc/elements/1.1/"
   xmlns:cc="http://creativecommons.org/ns#"
   xmlns:rdf="http://www.w3.org/1999/02/22-rdf-syntax-ns#"
   xmlns:svg="http://www.w3.org/2000/svg"
   xmlns="http://www.w3.org/2000/svg"
   xmlns:sodipodi="http://sodipodi.sourceforge.net/DTD/sodipodi-0.dtd"
   xmlns:inkscape="http://www.inkscape.org/namespaces/inkscape"
   sodipodi:docname="preferences.svg"
   height="100%"
   width="100%"
   inkscape:version="1.0.1 (3bc2e813f5, 2020-09-07)"
   version="1.1"
   id="svg"
   viewBox="0 0 22 22">
  <defs
     id="defs81">
    <style
       type="text/css"
       id="current-color-scheme" />
    <style
       type="text/css"
       id="current-color-scheme-5" />
  </defs>
  <metadata
     id="metadata34">
    <rdf:RDF>
      <cc:Work
         rdf:about="">
        <dc:format>image/svg+xml</dc:format>
        <dc:type
           rdf:resource="http://purl.org/dc/dcmitype/StillImage" />
        <dc:title />
      </cc:Work>
    </rdf:RDF>
  </metadata>
  <sodipodi:namedview
     inkscape:document-rotation="0"
     inkscape:lockguides="true"
     inkscape:snap-smooth-nodes="true"
     inkscape:snap-intersection-paths="true"
     inkscape:bbox-nodes="true"
     inkscape:snap-global="true"
     inkscape:snap-bbox-edge-midpoints="true"
     inkscape:snap-nodes="true"
     inkscape:snap-bbox="true"
     inkscape:guide-bbox="true"
     showguides="false"
     borderlayer="true"
     inkscape:current-layer="svg"
     inkscape:window-maximized="1"
     inkscape:window-y="0"
     inkscape:window-x="0"
     inkscape:cy="70.009646"
     inkscape:cx="61.219719"
     inkscape:zoom="3.3696693"
     showgrid="false"
     id="namedview32"
     inkscape:window-height="1016"
     inkscape:window-width="1920"
     inkscape:pageshadow="2"
     inkscape:pageopacity="0.10196078"
     guidetolerance="10"
     gridtolerance="10"
     objecttolerance="10"
     borderopacity="1"
     bordercolor="#000000"
     pagecolor="#ffffff">
    <inkscape:grid
       empopacity="0.07843137"
       empcolor="#0000ff"
       opacity="0.03921569"
       color="#0000ff"
       snapvisiblegridlinesonly="true"
       enabled="true"
       visible="true"
       empspacing="5"
       id="grid3046"
       type="xygrid" />
    <sodipodi:guide
       inkscape:locked="true"
       id="guide3820"
       position="23,19"
       orientation="0,1" />
    <sodipodi:guide
       inkscape:locked="true"
       id="guide3822"
       position="24,3"
       orientation="0,1" />
    <sodipodi:guide
       inkscape:locked="true"
       id="guide3824"
       position="11,10"
       orientation="1,0" />
    <sodipodi:guide
       inkscape:locked="true"
       id="guide3826"
       position="21,11"
       orientation="0,1" />
  </sodipodi:namedview>
  <g
     id="preferences-desktop-display-randr"
     transform="translate(-0.01094435,-0.00592845)">
    <path
       id="path4"
       style="fill:#faae05;fill-opacity:1;fill-rule:evenodd;stroke-width:0.843777;paint-order:fill markers stroke"
       d="m 3.1544944,3.8239285 c -0.4734202,0 -0.5490105,0.3716147 -0.55455,0.833142 l -0.1,8.3314335 H 19.390944 V 4.6570707 c 0,-0.4615606 -0.381138,-0.833142 -0.854548,-0.833142 z m -0.09955,0.5936917 H 18.636029 V 12.395141 H 2.9549443 Z"
       inkscape:connector-curvature="0"
       sodipodi:nodetypes="ssccsssccccc" />
    <circle
       id="circle6"
       r="0.33333001"
       cy="14.210259"
       cx="10.600274"
       style="opacity:1;fill:#0072e5;fill-opacity:1" />
    <rect
       id="rect8"
       height="0.69999999"
       width="5.5999999"
       y="16.799929"
       x="7.7999444"
       style="opacity:1;fill:#232627;fill-opacity:1;stroke-width:0.7" />
    <path
       id="path14"
       style="opacity:1;fill:#232627;fill-opacity:1;fill-rule:evenodd;stroke-width:0.85714;paint-order:fill markers stroke"
       d="m 3.1570868,3.7999285 c -0.4748563,0 -0.8571424,0.3822858 -0.8571424,0.857142 V 14.942788 c 0,0.474859 0.3822861,0.85714 0.8571424,0.85714 H 18.585663 c 0.47486,0 0.857141,-0.382281 0.857141,-0.85714 V 4.6570706 c 0,-0.4748561 -0.382281,-0.857142 -0.857141,-0.857142 z m 0,0.857142 H 18.585663 V 14.942788 H 3.1570868 Z"
       inkscape:connector-curvature="0"
       sodipodi:nodetypes="sssssssssccccc" />
    <rect
       y="0"
       x="0"
       height="22"
       width="22"
       id="rect3832"
       style="fill:#ffffff;fill-opacity:0;stroke:none" />
    <path
       class="ColorScheme-Text"
       sodipodi:nodetypes="cccc"
       inkscape:connector-curvature="0"
       id="rect3018"
       d="M 3.9879443,8.5119285 6.9879439,11.511928 H 3.9879443 Z"
       style="color:#dedede;fill:#faae05;fill-opacity:1;stroke:none;stroke-width:0.75" />
    <path
       style="color:#dedede;fill:#0080ff;fill-opacity:1;stroke:none;stroke-width:0.75"
       d="m 17.699944,8.5999286 -3,-3.0000002 h 3 z"
       id="path3028"
       inkscape:connector-curvature="0"
       sodipodi:nodetypes="cccc"
       class="ColorScheme-Text" />
  </g>
  <g
     transform="translate(-2,39)"
     id="preferences-desktop-notification">
    <rect
       style="fill:#ffffff;fill-opacity:0;stroke:none"
       id="rect3068"
       width="22"
       height="22"
       x="1"
       y="1" />
    <rect
       ry="7.999989"
       y="4"
       x="4.000011"
       height="15.999987"
       width="15.999978"
       id="rect4130-82-0"
       style="fill:#0080ff;fill-opacity:1;stroke:none" />
    <path
       sodipodi:nodetypes="cccccsssss"
       id="rect4142-6"
       d="m 11.202644,7.1999826 -0.0026,7.2000124 h 1.599998 l 0.0026,-7.2000124 z m 0.799999,7.9999894 c -0.441822,0 -0.799999,0.358171 -0.799999,0.799999 0,0.441827 0.358177,0.799999 0.799999,0.799999 0.441822,0 0.799999,-0.358172 0.799999,-0.799999 0,-0.441828 -0.358177,-0.799999 -0.799999,-0.799999 z"
       style="fill:#fac138;fill-opacity:1;stroke:none"
       inkscape:connector-curvature="0" />
  </g>
  <g
     id="22-22-preferences-system-bluetooth"
     transform="translate(2,0.410156)">
    <rect
       style="fill:none;stroke:none"
       id="rect4645"
       width="22"
       height="22"
       x="66"
       y="0" />
    <path
       class="ColorScheme-Text"
       sodipodi:nodetypes="cccccccccccccccccccccccccccc"
       inkscape:connector-curvature="0"
       style="color:#dedede;text-decoration:none;text-decoration-line:none;display:inline;overflow:visible;visibility:visible;fill:#232627;fill-opacity:1;fill-rule:nonzero;stroke:none;enable-background:accumulate"
       d="m 76.998047,3 v 0.00195 7.039063 l -3.292969,-3.2929692 -0.002,0.00195 C 73.347329,6.39404 72.707031,5.7539062 72.707031,5.7539062 L 72,6.4609375 76.544922,11.001953 72,15.542969 72.707031,16.25 c 0,0 0.640351,-0.640094 0.996094,-0.996094 h 0.002 L 77,11.960938 V 19 h 1 L 82,15 78,11 82,7 78,3 Z M 78,4.4160156 80.585938,7.0019531 78,9.5878906 Z m 0,8.0000004 2.585938,2.585937 L 78,17.587891 Z"
       id="rect4163-9" />
  </g>
  <g
     transform="translate(24,0.410156)"
     id="22-22-preferences-system-bluetooth-activated">
    <rect
       y="0"
       x="66"
       height="22"
       width="22"
       id="rect4674"
       style="fill:none;stroke:none" />
    <path
       class="ColorScheme-Text"
       id="path4676"
       d="m 76.998047,3 v 0.00195 7.039063 l -3.292969,-3.2929692 -0.002,0.00195 C 73.347329,6.39404 72.707031,5.7539062 72.707031,5.7539062 L 72,6.4609375 76.544922,11.001953 72,15.542969 72.707031,16.25 c 0,0 0.640351,-0.640094 0.996094,-0.996094 h 0.002 L 77,11.960938 V 19 h 1 L 82,15 78,11 82,7 78,3 Z M 78,4.4160156 80.585938,7.0019531 78,9.5878906 Z M 67,10 a 1,1 0 0 0 -1,1 1,1 0 0 0 1,1 1,1 0 0 0 1,-1 1,1 0 0 0 -1,-1 z m 4,0 a 1,1 0 0 0 -1,1 1,1 0 0 0 1,1 1,1 0 0 0 1,-1 1,1 0 0 0 -1,-1 z m 12,0 a 1,1 0 0 0 -1,1 1,1 0 0 0 1,1 1,1 0 0 0 1,-1 1,1 0 0 0 -1,-1 z m 4,0 a 1,1 0 0 0 -1,1 1,1 0 0 0 1,1 1,1 0 0 0 1,-1 1,1 0 0 0 -1,-1 z m -9,2.416016 2.585938,2.585937 L 78,17.587891 Z"
       style="color:#dedede;text-decoration:none;text-decoration-line:none;display:inline;overflow:visible;visibility:visible;fill:#232627;fill-opacity:1;fill-rule:nonzero;stroke:none;enable-background:accumulate"
       inkscape:connector-curvature="0" />
  </g>
  <g
     transform="translate(-20,0.410156)"
     id="22-22-preferences-system-bluetooth-inactive">
    <rect
       y="0"
       x="66"
       height="22"
       width="22"
       id="rect4162"
       style="fill:none;stroke:none" />
    <path
       class="ColorScheme-Text"
       id="path4164"
       d="m 76.998047,3 v 0.00195 7.039063 l -3.292969,-3.2929692 -0.002,0.00195 C 73.347329,6.39404 72.707031,5.7539062 72.707031,5.7539062 L 72,6.4609375 76.544922,11.001953 72,15.542969 72.707031,16.25 c 0,0 0.640351,-0.640094 0.996094,-0.996094 h 0.002 L 77,11.960938 V 19 h 1 L 82,15 78,11 82,7 78,3 Z M 78,4.4160156 80.585938,7.0019531 78,9.5878906 Z m 0,8.0000004 2.585938,2.585937 L 78,17.587891 Z"
       style="color:#dedede;text-decoration:none;text-decoration-line:none;display:inline;overflow:visible;visibility:visible;opacity:0.5;fill:#232627;fill-opacity:1;fill-rule:nonzero;stroke:none;enable-background:accumulate"
       inkscape:connector-curvature="0"
       sodipodi:nodetypes="cccccccccccccccccccccccccccc" />
  </g>
  <g
     transform="translate(68,0.410156)"
     id="preferences-system-bluetooth">
    <rect
       y="22"
       x="-5"
       height="32"
       width="32"
       id="rect4168"
       style="fill:none;stroke:none" />
    <path
       class="ColorScheme-Text"
       inkscape:connector-curvature="0"
       style="color:#dedede;fill:#232627;fill-opacity:1;stroke:none"
       d="m 11,26 v 0.410156 10.587891 L 5.0019531,31 4.296875,31.705078 10.589844,38 4.296875,44.294922 5.0019531,45 11,39.001953 V 50 h 1 0.002 L 18,44.001953 V 44 43.998 L 12.001953,38 18,32.001953 V 32 31.998 L 12.001953,26 H 12 Z M 12,27.410156 16.587891,32 12,36.589844 Z m 0,12 L 16.587891,44 12,48.589844 Z"
       id="rect4331" />
  </g>
  <g
     transform="translate(68,0.410156)"
     id="preferences-system-bluetooth-activated">
    <rect
       style="fill:none;stroke:none"
       id="rect4422"
       width="32"
       height="32"
       x="27"
       y="22" />
    <path
       class="ColorScheme-Text"
       inkscape:connector-curvature="0"
       style="color:#dedede;fill:#232627;fill-opacity:1;stroke:none"
       d="m 43,26 v 0.410156 10.587891 L 37.001953,31 36.296875,31.705078 42.589844,38 36.296875,44.294922 37.001953,45 43,39.001953 V 50 h 1 0.002 L 50,44.001953 V 44 43.998 L 44.001953,38 50,32.001953 V 32 31.998 L 44.001953,26 H 44 Z M 44,27.410156 48.587891,32 44,36.589844 Z M 30,37 a 1,1 0 0 0 -1,1 1,1 0 0 0 1,1 1,1 0 0 0 1,-1 1,1 0 0 0 -1,-1 z m 6,0 a 1,1 0 0 0 -1,1 1,1 0 0 0 1,1 1,1 0 0 0 1,-1 1,1 0 0 0 -1,-1 z m 14,0 a 1,1 0 0 0 -1,1 1,1 0 0 0 1,1 1,1 0 0 0 1,-1 1,1 0 0 0 -1,-1 z m 6,0 a 1,1 0 0 0 -1,1 1,1 0 0 0 1,1 1,1 0 0 0 1,-1 1,1 0 0 0 -1,-1 z M 44,39.410156 48.587891,44 44,48.589844 Z"
       id="path4424" />
  </g>
  <g
     transform="translate(68,0.410156)"
     id="preferences-system-bluetooth-inactive">
    <rect
       y="22"
       x="-37"
       height="32"
       width="32"
       id="rect4426"
       style="fill:none;stroke:none" />
    <path
       class="ColorScheme-Text"
       inkscape:connector-curvature="0"
       style="color:#dedede;opacity:0.5;fill:#232627;fill-opacity:1;stroke:none"
       d="m -21,26 v 0.410156 10.587891 L -26.998047,31 -27.703125,31.705078 -21.410156,38 -27.703125,44.294922 -26.998047,45 -21,39.001953 V 50 h 1 0.002 L -14,44.001953 v -0.002 -0.002 L -19.998047,38 -14,32.001953 V 32 31.998 L -19.998047,26 H -20 Z m 1,1.410156 L -15.412109,32 -20,36.589844 Z m 0,12 L -15.412109,44 -20,48.589844 Z"
       id="path4428" />
  </g>
  <g
     transform="translate(68,32.410156)"
     id="preferences-system-bluetooth-battery">
    <rect
       y="22"
       x="-5"
       height="32"
       width="32"
       id="rect4168-3"
       style="fill:none;stroke:none" />
    <path
       class="ColorScheme-Text"
       inkscape:connector-curvature="0"
       style="color:#dedede;fill:#232627;fill-opacity:1;stroke:none"
       d="m 11,26 v 0.410156 10.587891 L 5.0019531,31 4.296875,31.705078 10.589844,38 4.296875,44.294922 5.0019531,45 11,39.001953 V 50 h 1 0.002 L 18,44.001953 V 44 43.998 L 12.001953,38 18,32.001953 V 32 31.998 L 12.001953,26 H 12 Z M 12,27.410156 16.587891,32 12,36.589844 Z m 0,12 L 16.587891,44 12,48.589844 Z"
       id="rect4331-5" />
  </g>
</svg>
