<?xml version="1.0" encoding="UTF-8" standalone="no"?>
<svg
   xmlns:dc="http://purl.org/dc/elements/1.1/"
   xmlns:cc="http://creativecommons.org/ns#"
   xmlns:rdf="http://www.w3.org/1999/02/22-rdf-syntax-ns#"
   xmlns:svg="http://www.w3.org/2000/svg"
   xmlns="http://www.w3.org/2000/svg"
   xmlns:sodipodi="http://sodipodi.sourceforge.net/DTD/sodipodi-0.dtd"
   xmlns:inkscape="http://www.inkscape.org/namespaces/inkscape"
   inkscape:version="0.92.2 5c3e80d, 2017-08-06"
   sodipodi:docname="busywidget.svg"
   id="svg6"
   viewBox="0 0 27 32"
   height="32"
   width="27"
   version="1.1">
  <defs
     id="defs10" />
  <sodipodi:namedview
     inkscape:current-layer="svg6"
     inkscape:window-maximized="1"
     inkscape:window-y="0"
     inkscape:window-x="0"
     inkscape:cy="16"
     inkscape:cx="3.6846635"
     inkscape:zoom="19.96875"
     showgrid="false"
     id="namedview8"
     inkscape:window-height="1013"
     inkscape:window-width="1920"
     inkscape:pageshadow="2"
     inkscape:pageopacity="0"
     guidetolerance="10"
     gridtolerance="10"
     objecttolerance="10"
     borderopacity="1"
     bordercolor="#666666"
     pagecolor="#ffffff" />
  <path
     style="fill-opacity:1;fill:#0078f1"
     id="busywidget"
     d="M20.873 10.726a1.3 1.3 0 0 0-1.83-1.831 9.204 9.204 0 0 0-5.559-1.861c-5.101 0-9.252 4.15-9.252 9.252s4.15 9.252 9.252 9.252 9.251-4.15 9.251-9.252a9.2 9.2 0 0 0-1.861-5.559zm-7.39 14.5c-4.93 0-8.94-4.011-8.94-8.94s4.011-8.94 8.94-8.94c2.004 0 3.857.663 5.349 1.781a1.3 1.3 0 0 0 1.809 1.809 8.896 8.896 0 0 1 1.781 5.35c0 4.93-4.01 8.94-8.94 8.94zm3.777-8.941a3.777 3.777 0 1 1-7.554 0 3.777 3.777 0 0 1 7.554 0z"
     fill="#004a94" />
  <metadata
     id="metadata4">
    <rdf:RDF>
      <cc:Work
         rdf:about="">
        <dc:format>image/svg+xml</dc:format>
        <dc:type
           rdf:resource="http://purl.org/dc/dcmitype/StillImage" />
        <dc:title />
      </cc:Work>
    </rdf:RDF>
  </metadata>
</svg>
