<?xml version="1.0" encoding="UTF-8" standalone="no"?>
<svg
   xmlns:dc="http://purl.org/dc/elements/1.1/"
   xmlns:cc="http://creativecommons.org/ns#"
   xmlns:rdf="http://www.w3.org/1999/02/22-rdf-syntax-ns#"
   xmlns:svg="http://www.w3.org/2000/svg"
   xmlns="http://www.w3.org/2000/svg"
   xmlns:xlink="http://www.w3.org/1999/xlink"
   xmlns:sodipodi="http://sodipodi.sourceforge.net/DTD/sodipodi-0.dtd"
   xmlns:inkscape="http://www.inkscape.org/namespaces/inkscape"
   inkscape:version="1.0.1 (3bc2e813f5, 2020-09-07)"
   sodipodi:docname="panel-background.svg"
   version="1"
   height="210.939"
   width="205"
   id="svg3642">
  <metadata
     id="metadata107">
    <rdf:RDF>
      <cc:Work
         rdf:about="">
        <dc:format>image/svg+xml</dc:format>
        <dc:type
           rdf:resource="http://purl.org/dc/dcmitype/StillImage" />
        <dc:title />
      </cc:Work>
    </rdf:RDF>
  </metadata>
  <sodipodi:namedview
     inkscape:document-rotation="0"
     inkscape:current-layer="svg3642"
     inkscape:window-maximized="1"
     inkscape:window-y="0"
     inkscape:window-x="0"
     inkscape:cy="110.86886"
     inkscape:cx="110.4131"
     inkscape:zoom="1.5822319"
     showgrid="false"
     id="namedview105"
     inkscape:window-height="1007"
     inkscape:window-width="1920"
     inkscape:pageshadow="2"
     inkscape:pageopacity="0"
     guidetolerance="10"
     gridtolerance="10"
     objecttolerance="10"
     borderopacity="1"
     bordercolor="#000000"
     pagecolor="#ffffff" />
  <defs
     id="defs3644">
    <style
       type="text/css"
       id="current-color-scheme">
   .ColorScheme-Background { color:#383c4a; }
  </style>
    <radialGradient
       xlink:href="#linearGradient4465"
       gradientUnits="userSpaceOnUse"
       gradientTransform="matrix(-1.411767,-9.899721e-6,9.8996845e-6,-1.4117618,1527.1698,1378.1046)"
       fy="905.362"
       fx="984"
       r="8.5"
       cy="905.362"
       cx="984"
       id="radialGradient4263" />
    <linearGradient
       id="linearGradient4465">
      <stop
         style="stop-color:#000000;stop-opacity:0.50980395"
         offset="0"
         id="stop4467" />
      <stop
         style="stop-color:#000000;stop-opacity:0"
         offset="1"
         id="stop4469" />
    </linearGradient>
    <radialGradient
       xlink:href="#linearGradient4465"
       gradientUnits="userSpaceOnUse"
       gradientTransform="matrix(1.4117577,5.5406049e-6,-5.5406032e-6,1.4117573,-1199.6245,-1229.7583)"
       fy="906.453"
       fx="982.909"
       r="8.5"
       cy="906.453"
       cx="982.909"
       id="radialGradient4255" />
    <linearGradient
       xlink:href="#linearGradient4465"
       gradientUnits="userSpaceOnUse"
       gradientTransform="matrix(0.71428571,0,0,1,-317.71429,1250.3622)"
       y2="-957.362"
       y1="-969.362"
       x2="83.6"
       x1="83.6"
       id="linearGradient4259" />
    <linearGradient
       xlink:href="#linearGradient4465"
       gradientUnits="userSpaceOnUse"
       y2="293"
       y1="281"
       x2="-260"
       x1="-260"
       id="linearGradient4452" />
    <radialGradient
       xlink:href="#linearGradient4465"
       gradientUnits="userSpaceOnUse"
       gradientTransform="matrix(7.8257357e-6,1.411771,-1.4117668,7.8257123e-6,1466.1525,-1289.2508)"
       fy="905.362"
       fx="984"
       r="8.5"
       cy="905.362"
       cx="984"
       id="radialGradient3382" />
    <radialGradient
       xlink:href="#linearGradient4465"
       gradientUnits="userSpaceOnUse"
       gradientTransform="matrix(-1.6187099e-5,-1.4117565,1.4117775,-1.618734e-5,-1140.1539,1439.1221)"
       fy="905.362"
       fx="984"
       r="8.5"
       cy="905.362"
       cx="984"
       id="radialGradient4275" />
    <linearGradient
       xlink:href="#linearGradient4465"
       gradientUnits="userSpaceOnUse"
       gradientTransform="matrix(0.71428571,0,0,1,-317.71429,1250.3622)"
       y2="-957.362"
       y1="-969.362"
       x2="83.6"
       x1="83.6"
       id="linearGradient4315" />
    <linearGradient
       xlink:href="#linearGradient4465"
       gradientUnits="userSpaceOnUse"
       gradientTransform="matrix(0.71428571,0,0,1,-317.71429,1250.3622)"
       y2="-957.362"
       y1="-969.362"
       x2="83.6"
       x1="83.6"
       id="linearGradient4317" />
  </defs>
  <rect
     y="50.94"
     x="8"
     height="50"
     width="50"
     class="ColorScheme-Background"
     id="center"
     style="opacity:0.9;fill:#1e2129;fill-opacity:1;stroke:none" />
  <g
     transform="translate(-9,33.93854)"
     id="left">
    <g
       transform="matrix(-1,0,0,1,298,-240)"
       id="shadow-left-3">
      <rect
         style="fill:#3498db;fill-opacity:0"
         transform="translate(3,2)"
         y="257"
         x="278"
         height="1"
         width="7"
         id="rect33" />
    </g>
    <path
       d="m 10.000015,16.999925 v 50 l 7,10e-6 v -50 z"
       class="ColorScheme-Background"
       id="path71"
       style="opacity:0.9;fill:#1e2129;fill-opacity:1;stroke:none" />
    <path
       d="m 9,17 v 50 h 1 V 17 Z"
       id="path4438"
       style="color:#000000;font-style:normal;font-variant:normal;font-weight:normal;font-stretch:normal;font-size:medium;line-height:normal;font-family:sans-serif;text-indent:0;text-align:start;text-decoration:none;text-decoration-line:none;text-decoration-style:solid;text-decoration-color:#000000;letter-spacing:normal;word-spacing:normal;text-transform:none;writing-mode:lr-tb;direction:ltr;baseline-shift:baseline;text-anchor:start;white-space:normal;clip-rule:nonzero;display:inline;overflow:visible;visibility:visible;opacity:0.2;isolation:auto;mix-blend-mode:normal;color-interpolation:sRGB;color-interpolation-filters:linearRGB;solid-color:#000000;solid-opacity:1;fill:#000000;fill-opacity:1;fill-rule:nonzero;stroke:none;stroke-width:2;stroke-linecap:butt;stroke-linejoin:miter;stroke-miterlimit:4;stroke-dasharray:none;stroke-dashoffset:0;stroke-opacity:1;color-rendering:auto;image-rendering:auto;shape-rendering:auto;text-rendering:auto;enable-background:accumulate" />
  </g>
  <g
     transform="translate(-9,33.93854)"
     id="right">
    <g
       transform="translate(-214,-240)"
       id="shadow-right-2">
      <rect
         style="fill:#3498db;fill-opacity:0"
         transform="translate(3,2)"
         y="257"
         x="278"
         height="1"
         width="7"
         id="rect47" />
    </g>
    <path
       d="m 73.999995,16.999935 v 50 l -7,1e-5 v -50 z"
       class="ColorScheme-Background"
       id="path79"
       style="opacity:0.9;fill:#1e2129;fill-opacity:1;stroke:none" />
    <path
       d="m 74,17 v 50 h 1 V 17 Z"
       id="path4440"
       style="color:#000000;font-style:normal;font-variant:normal;font-weight:normal;font-stretch:normal;font-size:medium;line-height:normal;font-family:sans-serif;text-indent:0;text-align:start;text-decoration:none;text-decoration-line:none;text-decoration-style:solid;text-decoration-color:#000000;letter-spacing:normal;word-spacing:normal;text-transform:none;writing-mode:lr-tb;direction:ltr;baseline-shift:baseline;text-anchor:start;white-space:normal;clip-rule:nonzero;display:inline;overflow:visible;visibility:visible;opacity:0.2;isolation:auto;mix-blend-mode:normal;color-interpolation:sRGB;color-interpolation-filters:linearRGB;solid-color:#000000;solid-opacity:1;fill:#000000;fill-opacity:1;fill-rule:nonzero;stroke:none;stroke-width:2;stroke-linecap:butt;stroke-linejoin:miter;stroke-miterlimit:4;stroke-dasharray:none;stroke-dashoffset:0;stroke-opacity:1;color-rendering:auto;image-rendering:auto;shape-rendering:auto;text-rendering:auto;enable-background:accumulate" />
  </g>
  <g
     transform="translate(-9,33.93854)"
     id="bottom">
    <g
       transform="rotate(90,269,55)"
       id="shadow-bottom-9">
      <rect
         style="fill:#3498db;fill-opacity:0"
         transform="translate(3,2)"
         y="257"
         x="278"
         height="1"
         width="7"
         id="rect41" />
    </g>
    <path
       d="m 16.999975,74.000065 h 50.00002 v -7 h -50.00001 z"
       class="ColorScheme-Background"
       id="path95"
       style="opacity:0.9;fill:#1e2129;fill-opacity:1;stroke:none" />
    <path
       d="m 17,74 v 1 h 50 v -1 z"
       id="path4436"
       style="color:#000000;font-style:normal;font-variant:normal;font-weight:normal;font-stretch:normal;font-size:medium;line-height:normal;font-family:sans-serif;text-indent:0;text-align:start;text-decoration:none;text-decoration-line:none;text-decoration-style:solid;text-decoration-color:#000000;letter-spacing:normal;word-spacing:normal;text-transform:none;writing-mode:lr-tb;direction:ltr;baseline-shift:baseline;text-anchor:start;white-space:normal;clip-rule:nonzero;display:inline;overflow:visible;visibility:visible;opacity:0.2;isolation:auto;mix-blend-mode:normal;color-interpolation:sRGB;color-interpolation-filters:linearRGB;solid-color:#000000;solid-opacity:1;fill:#000000;fill-opacity:1;fill-rule:nonzero;stroke:none;stroke-width:2;stroke-linecap:butt;stroke-linejoin:miter;stroke-miterlimit:4;stroke-dasharray:none;stroke-dashoffset:0;stroke-opacity:1;color-rendering:auto;image-rendering:auto;shape-rendering:auto;text-rendering:auto;enable-background:accumulate" />
  </g>
  <g
     transform="translate(-9,33.93854)"
     id="top">
    <g
       transform="matrix(0,-1,-1,0,324,298)"
       id="shadow-top-6">
      <rect
         style="fill:#3498db;fill-opacity:0"
         transform="translate(3,2)"
         y="257"
         x="278"
         height="1"
         width="7"
         id="rect53" />
    </g>
    <path
       d="m 16.999975,9.999935 h 50.00002 v 7 h -50.00001 z"
       class="ColorScheme-Background"
       id="path111"
       style="opacity:0.9;fill:#1e2129;fill-opacity:1;stroke:none" />
    <path
       d="M 17,9.0000004 V 10 H 67 V 9.0000004 Z"
       id="path4433"
       style="color:#000000;font-style:normal;font-variant:normal;font-weight:normal;font-stretch:normal;font-size:medium;line-height:normal;font-family:sans-serif;text-indent:0;text-align:start;text-decoration:none;text-decoration-line:none;text-decoration-style:solid;text-decoration-color:#000000;letter-spacing:normal;word-spacing:normal;text-transform:none;writing-mode:lr-tb;direction:ltr;baseline-shift:baseline;text-anchor:start;white-space:normal;clip-rule:nonzero;display:inline;overflow:visible;visibility:visible;opacity:0.2;isolation:auto;mix-blend-mode:normal;color-interpolation:sRGB;color-interpolation-filters:linearRGB;solid-color:#000000;solid-opacity:1;fill:#000000;fill-opacity:1;fill-rule:nonzero;stroke:none;stroke-width:2;stroke-linecap:butt;stroke-linejoin:miter;stroke-miterlimit:4;stroke-dasharray:none;stroke-dashoffset:0;stroke-opacity:1;color-rendering:auto;image-rendering:auto;shape-rendering:auto;text-rendering:auto;enable-background:accumulate" />
  </g>
  <g
     transform="translate(-9,0.99954536)"
     id="topleft">
    <path
       d="m 17.000005,42.93893 v 7 h -7 v -2 c 0,-2.77 2.23,-5 5,-5 z"
       class="ColorScheme-Background"
       id="path63"
       style="opacity:0.9;fill:#1e2129;fill-opacity:1;stroke:none" />
    <path
       style="color:#000000;opacity:0.2"
       d="m 15,41.939453 c -3.306703,0 -6,2.693297 -6,6 v 2 h 1 v -2 c 0,-2.77 2.23,-5 5,-5 h 2 v -1 z"
       id="path4256" />
  </g>
  <g
     transform="translate(-9,0.99954536)"
     id="topright">
    <path
       d="m 66.999995,42.93893 v 7 h 7 v -2 c 0,-2.77 -2.23,-5 -5,-5 z"
       class="ColorScheme-Background"
       id="path119"
       style="opacity:0.91;fill:#1e2129;fill-opacity:1;stroke:none" />
    <path
       d="m 69,41.938995 c 3.306703,0 6,2.693297 6,6 v 2 h -1 v -2 c 0,-2.77 -2.23,-5 -5,-5 h -2 v -1 z"
       id="path4272"
       style="color:#000000;opacity:0.2" />
  </g>
  <g
     transform="translate(-9,0.99954536)"
     id="bottomleft">
    <path
       d="m 17.000005,106.93902 v -7 h -7 v 2 c 0,2.77 2.23,5 5,5 z"
       class="ColorScheme-Background"
       id="path87"
       style="opacity:0.9;fill:#1e2129;fill-opacity:1;stroke:none" />
    <path
       d="m 15,107.939 c -3.306703,0 -6,-2.6933 -6,-6 v -2.000005 h 1 V 101.939 c 0,2.77 2.23,5 5,5 h 2 v 1 z"
       id="path4274"
       style="color:#000000;opacity:0.2" />
  </g>
  <g
     transform="translate(-9,0.99954536)"
     id="bottomright">
    <path
       d="m 66.999995,106.93902 v -7 h 7 v 2 c 0,2.77 -2.23,5 -5,5 z"
       class="ColorScheme-Background"
       id="path103"
       style="opacity:0.9;fill:#1e2129;fill-opacity:1;stroke:none" />
    <path
       style="color:#000000;opacity:0.2"
       d="m 69,107.93945 c 3.306703,0 6,-2.69329 6,-6 v -2.000005 h -1 v 2.000005 c 0,2.77 -2.23,5 -5,5 h -2 v 1 z"
       id="path4276" />
  </g>
  <rect
     y="50.94"
     x="29"
     height="10"
     width="4"
     id="hint-top-margin"
     style="opacity:0.01;fill:#008080;fill-opacity:1;stroke:none" />
  <rect
     y="90.94"
     x="29"
     height="10"
     width="4"
     id="hint-bottom-margin"
     style="opacity:0.01;fill:#008080;fill-opacity:1;stroke:none" />
  <rect
     y="73.94"
     x="8"
     height="4"
     width="10"
     id="hint-left-margin"
     style="opacity:0.01;fill:#008080;fill-opacity:1;stroke:none" />
  <rect
     y="73.94"
     x="48"
     height="4"
     width="10"
     id="hint-right-margin"
     style="opacity:0.01;fill:#008080;fill-opacity:1;stroke:none" />
  <rect
     y="143.94"
     x="71"
     height="50"
     width="50"
     id="mask-center"
     style="fill:#000000;fill-opacity:1;stroke:none" />
  <g
     transform="translate(-183,-207.06091)"
     id="mask-topright">
    <path
       d="m 304.00003,343.99992 0,7 7,0 0,-2 c 0,-2.77 -2.23,-5 -5,-5 z"
       id="path4120"
       style="fill:#000000;fill-opacity:1;stroke:none" />
    <rect
       y="343"
       x="308"
       height="4"
       width="4"
       id="rect4438"
       style="opacity:1;fill:#ffffff;fill-opacity:0;stroke:none;stroke-width:0.5;stroke-miterlimit:4;stroke-dasharray:none;stroke-opacity:1" />
  </g>
  <g
     transform="translate(-183,-207.06091)"
     id="mask-top">
    <path
       d="m 253.99999,344 50,0 10e-6,7 -50,0 z"
       id="path4128"
       style="fill:#000000;fill-opacity:1;stroke:none" />
    <path
       d="m 253.99999,349.99992 50,0 0,1 -50,0 z"
       id="path4134"
       style="fill:#ffffff;fill-opacity:0;stroke:none" />
    <rect
       y="343"
       x="300"
       height="1"
       width="1"
       id="rect4449"
       style="opacity:1;fill:#ffffff;fill-opacity:0;stroke:none;stroke-width:0.5;stroke-miterlimit:4;stroke-dasharray:none;stroke-opacity:1" />
  </g>
  <g
     transform="matrix(1,0,0,-1,-183,544.93901)"
     id="mask-bottomright">
    <path
       d="m 304.00003,343.99992 0,7 7,0 0,-2 c 0,-2.77 -2.23,-5 -5,-5 z"
       id="path4458"
       style="fill:#000000;fill-opacity:1;stroke:none" />
    <rect
       y="343"
       x="308"
       height="4"
       width="4"
       id="rect4460"
       style="opacity:1;fill:#ffffff;fill-opacity:0;stroke:none;stroke-width:0.5;stroke-miterlimit:4;stroke-dasharray:none;stroke-opacity:1" />
  </g>
  <g
     transform="matrix(1,0,0,-1,-183,544.93909)"
     id="mask-bottom">
    <path
       d="m 253.99999,344 50,0 10e-6,7 -50,0 z"
       id="path4464"
       style="fill:#000000;fill-opacity:1;stroke:none" />
    <path
       d="m 253.99999,349.99992 50,0 0,1 -50,0 z"
       id="path4466"
       style="fill:#ffffff;fill-opacity:0;stroke:none" />
    <rect
       y="343"
       x="300"
       height="1"
       width="1"
       id="rect4468"
       style="opacity:1;fill:#ffffff;fill-opacity:0;stroke:none;stroke-width:0.5;stroke-miterlimit:4;stroke-dasharray:none;stroke-opacity:1" />
  </g>
  <g
     transform="matrix(-1,0,0,-1,375.00003,544.93901)"
     id="mask-bottomleft">
    <path
       d="m 304.00003,343.99992 0,7 7,0 0,-2 c 0,-2.77 -2.23,-5 -5,-5 z"
       id="path4472"
       style="fill:#000000;fill-opacity:1;stroke:none" />
    <rect
       y="343"
       x="308"
       height="4"
       width="4"
       id="rect4474"
       style="opacity:1;fill:#ffffff;fill-opacity:0;stroke:none;stroke-width:0.5;stroke-miterlimit:4;stroke-dasharray:none;stroke-opacity:1" />
  </g>
  <g
     transform="matrix(0,1,-1,0,472,-110.0609)"
     id="mask-right">
    <path
       d="m 253.99999,344 50,0 10e-6,7 -50,0 z"
       id="path4478"
       style="fill:#000000;fill-opacity:1;stroke:none" />
    <path
       d="m 253.99999,349.99992 50,0 0,1 -50,0 z"
       id="path4480"
       style="fill:#ffffff;fill-opacity:0;stroke:none" />
    <rect
       y="343"
       x="300"
       height="1"
       width="1"
       id="rect4482"
       style="opacity:1;fill:#ffffff;fill-opacity:0;stroke:none;stroke-width:0.5;stroke-miterlimit:4;stroke-dasharray:none;stroke-opacity:1" />
  </g>
  <g
     transform="matrix(0,1,1,0,-280,-110.06091)"
     id="mask-left">
    <path
       d="m 253.99999,344 50,0 10e-6,7 -50,0 z"
       id="path4486"
       style="fill:#000000;fill-opacity:1;stroke:none" />
    <path
       d="m 253.99999,349.99992 50,0 0,1 -50,0 z"
       id="path4488"
       style="fill:#ffffff;fill-opacity:0;stroke:none" />
    <rect
       y="343"
       x="300"
       height="1"
       width="1"
       id="rect4490"
       style="opacity:1;fill:#ffffff;fill-opacity:0;stroke:none;stroke-width:0.5;stroke-miterlimit:4;stroke-dasharray:none;stroke-opacity:1" />
  </g>
  <g
     transform="matrix(-1,0,0,1,375.00003,-207.06091)"
     id="mask-topleft">
    <path
       d="m 304.00003,343.99992 0,7 7,0 0,-2 c 0,-2.77 -2.23,-5 -5,-5 z"
       id="path4494"
       style="fill:#000000;fill-opacity:1;stroke:none" />
    <rect
       y="343"
       x="308"
       height="4"
       width="4"
       id="rect4496"
       style="opacity:1;fill:#ffffff;fill-opacity:0;stroke:none;stroke-width:0.5;stroke-miterlimit:4;stroke-dasharray:none;stroke-opacity:1" />
  </g>
  <path
     d="m 121,49.93897 10,0 0,-2 c 0,-2.77 2.23,-5 5,-5 l 2,0 0,-10 -17,0 z"
     id="shadow-topleft"
     style="opacity:1;fill:url(#radialGradient4275);fill-opacity:1;stroke:none" />
  <g
     transform="matrix(-1,0,0,1,419,-207.06102)"
     id="shadow-left">
    <rect
       transform="matrix(0,-1,1,0,0,0)"
       y="288"
       x="-307"
       height="10"
       width="50"
       id="rect4267"
       style="opacity:1;fill:url(#linearGradient4315);fill-opacity:1;stroke:none" />
    <rect
       transform="translate(3,2)"
       y="257"
       x="278"
       height="1"
       width="7"
       id="rect4269"
       style="fill:#3498db;fill-opacity:0" />
  </g>
  <path
     d="m 205,99.93897 -10,0 0,2 c 0,2.77 -2.23,5 -5,5 l -2,0 0,10 17,0 z"
     id="shadow-bottomright"
     style="opacity:1;fill:url(#radialGradient3382);fill-opacity:1;stroke:none" />
  <g
     transform="matrix(0,1,-1,0,445,-181.06102)"
     id="shadow-bottom">
    <rect
       transform="matrix(0,-1,1,0,0,0)"
       y="288"
       x="-307"
       height="10"
       width="50"
       id="rect3389"
       style="opacity:1;fill:url(#linearGradient4317);fill-opacity:1;stroke:none" />
    <rect
       transform="translate(3,2)"
       y="257"
       x="278"
       height="1"
       width="7"
       id="rect4241"
       style="fill:#3498db;fill-opacity:0" />
  </g>
  <g
     transform="translate(-93,-207.06102)"
     id="shadow-right">
    <rect
       transform="matrix(0,-1,1,0,0,0)"
       y="288"
       x="-307"
       height="10"
       width="50"
       id="rect4251"
       style="opacity:1;fill:url(#linearGradient4452);fill-opacity:1;stroke:none" />
    <rect
       transform="translate(3,2)"
       y="257"
       x="278"
       height="1"
       width="7"
       id="rect4253"
       style="fill:#3498db;fill-opacity:0" />
  </g>
  <g
     transform="matrix(0,-1,-1,0,445,330.93897)"
     id="shadow-top">
    <rect
       transform="matrix(0,-1,1,0,0,0)"
       y="288"
       x="-307"
       height="10"
       width="50"
       id="rect4279"
       style="opacity:1;fill:url(#linearGradient4259);fill-opacity:1;stroke:none" />
    <rect
       transform="translate(3,2)"
       y="257"
       x="278"
       height="1"
       width="7"
       id="rect4281"
       style="fill:#3498db;fill-opacity:0" />
  </g>
  <path
     d="m 188,32.93897 0,10 2,0 c 2.77,0 5,2.23 5,5 l 0,2 10,0 0,-17 z"
     id="shadow-topright"
     style="opacity:1;fill:url(#radialGradient4255);fill-opacity:1;stroke:none" />
  <path
     d="m 138,116.93897 0,-10 -2,0 c -2.77,0 -5,-2.23 -5,-5 l 0,-2 -10,0 0,17 z"
     id="shadow-bottomleft"
     style="opacity:1;fill:url(#radialGradient4263);fill-opacity:1;stroke:none" />
  <rect
     y="72.94"
     x="195"
     height="4"
     width="10"
     id="shadow-hint-right-margin"
     style="opacity:0.01;fill:#008080;fill-opacity:1;stroke:none" />
  <rect
     y="106.94"
     x="161"
     height="10"
     width="4"
     id="shadow-hint-bottom-margin"
     style="opacity:0.01;fill:#008080;fill-opacity:1;stroke:none" />
  <rect
     y="72.94"
     x="121"
     height="4"
     width="10"
     id="shadow-hint-left-margin"
     style="opacity:0.01;fill:#008080;fill-opacity:1;stroke:none" />
  <rect
     y="32.94"
     x="162"
     height="10"
     width="4"
     id="shadow-hint-top-margin"
     style="opacity:0.01;fill:#008080;fill-opacity:1;stroke:none" />
</svg>
