<?xml version="1.0" encoding="UTF-8" standalone="no"?>
<svg
   xmlns:dc="http://purl.org/dc/elements/1.1/"
   xmlns:cc="http://creativecommons.org/ns#"
   xmlns:rdf="http://www.w3.org/1999/02/22-rdf-syntax-ns#"
   xmlns:svg="http://www.w3.org/2000/svg"
   xmlns="http://www.w3.org/2000/svg"
   xmlns:xlink="http://www.w3.org/1999/xlink"
   xmlns:sodipodi="http://sodipodi.sourceforge.net/DTD/sodipodi-0.dtd"
   xmlns:inkscape="http://www.inkscape.org/namespaces/inkscape"
   inkscape:version="0.92.2 5c3e80d, 2017-08-06"
   sodipodi:docname="folder-download.svg"
   id="svg14"
   version="1.1"
   viewBox="0 0 32 32">
  <metadata
     id="metadata18">
    <rdf:RDF>
      <cc:Work
         rdf:about="">
        <dc:format>image/svg+xml</dc:format>
        <dc:type
           rdf:resource="http://purl.org/dc/dcmitype/StillImage" />
      </cc:Work>
    </rdf:RDF>
  </metadata>
  <sodipodi:namedview
     inkscape:document-rotation="0"
     inkscape:current-layer="svg14"
     inkscape:window-maximized="1"
     inkscape:window-y="0"
     inkscape:window-x="0"
     inkscape:cy="23.132898"
     inkscape:cx="-61.487794"
     inkscape:zoom="5.2149125"
     showgrid="false"
     id="namedview16"
     inkscape:window-height="1013"
     inkscape:window-width="1920"
     inkscape:pageshadow="2"
     inkscape:pageopacity="0"
     guidetolerance="10"
     gridtolerance="10"
     objecttolerance="10"
     borderopacity="1"
     bordercolor="#666666"
     pagecolor="#ffffff" />
  <defs
     id="defs3051">
    <linearGradient
       id="linearGradient825"
       inkscape:collect="always">
      <stop
         id="stop821"
         offset="0"
         style="stop-color:#fac136;stop-opacity:1" />
      <stop
         id="stop823"
         offset="1"
         style="stop-color:#007fff;stop-opacity:1" />
    </linearGradient>
    <linearGradient
       id="linearGradient832"
       inkscape:collect="always">
      <stop
         id="stop828"
         offset="0"
         style="stop-color:#05b1ff;stop-opacity:1" />
      <stop
         id="stop830"
         offset="1"
         style="stop-color:#fac136;stop-opacity:1" />
    </linearGradient>
    <style
       id="current-color-scheme"
       type="text/css">
      .ColorScheme-Text {
        color:#31363b;
      }
      .ColorScheme-Background {
        color:#eff0f1;
      }
      .ColorScheme-Highlight {
        color:#3daee9;
      }
      .ColorScheme-ViewText {
        color:#31363b;
      }
      .ColorScheme-ViewBackground {
        color:#fcfcfc;
      }
      .ColorScheme-ViewHover {
        color:#93cee9;
      }
      .ColorScheme-ViewFocus{
        color:#3daee9;
      }
      .ColorScheme-ButtonText {
        color:#31363b;
      }
      .ColorScheme-ButtonBackground {
        color:#eff0f1;
      }
      .ColorScheme-ButtonHover {
        color:#93cee9;
      }
      .ColorScheme-ButtonFocus{
        color:#3daee9;
      }
      </style>
    <linearGradient
       gradientUnits="userSpaceOnUse"
       y2="3"
       x2="2"
       y1="8"
       x1="31"
       id="linearGradient834"
       xlink:href="#linearGradient832"
       inkscape:collect="always" />
    <linearGradient
       gradientUnits="userSpaceOnUse"
       y2="22"
       x2="20"
       y1="11"
       x1="1"
       id="linearGradient827"
       xlink:href="#linearGradient825"
       inkscape:collect="always" />
  </defs>
  <path
     id="path4"
     class="ColorScheme-Highlight"
     d="M 2 3 L 2 10 L 1 10 L 1 29 L 12 29 L 13 29 L 31 29 L 31 8 L 30 8 L 30 5 L 16 5 L 14 3 L 2 3 z "
     style="fill:url(#linearGradient827);fill-opacity:1;stroke:none" />
  <path
     id="path6"
     d="m 2,3 0,7 9,0 L 13,8 30,8 30,5 16,5 14,3 2,3 Z"
     style="fill-opacity:1;fill-rule:evenodd;fill:url(#linearGradient834)" />
  <path
     id="path8"
     d="M 14 3 L 15 6 L 30 6 L 30 5 L 16 5 L 14 3 z M 13 8 L 11 10 L 1 10 L 1 11 L 12 11 L 13 8 z "
     style="fill:#ffffff;fill-opacity:0.2;fill-rule:evenodd" />
  <path
     id="path10"
     class="ColorScheme-Text"
     d="M 13 8 L 11 9 L 2 9 L 2 10 L 11 10 L 13 8 z M 1 28 L 1 29 L 31 29 L 31 28 L 1 28 z "
     style="fill-opacity:0.2;fill-rule:evenodd" />
  <path
     id="path12"
     class="ColorScheme-Background"
     d="M 14 13 L 14 14 L 14 17 L 15 17 L 15 14 L 17.003906 14 L 17.003906 17 L 18 17 L 18 13 L 14 13 z M 13.207031 16.796875 L 12.5 17.503906 L 15 20.003906 L 15.792969 20.796875 L 16 21.003906 L 16.207031 20.796875 L 17.003906 20 L 19.5 17.503906 L 18.792969 16.796875 L 17 18.589844 L 16 19.589844 L 15 18.589844 L 13.207031 16.796875 z M 11 21 L 11 22 L 11 23 L 12 23 L 21 23 L 21 22 L 21 21 L 20 21 L 20 22 L 12 22 L 12 21 L 11 21 z "
     style="fill:#002d3c;fill-opacity:1;stroke:none" />
</svg>
